# xmcd
#
# Track frame offsets: 
#        150
#        10387
#        23807
#        32947
#        44450
#        57630
#        71208
#        85043
#        102118
#        115613
#        127550
#        140517
#        158889
#        172161
#        187021
#        200363
#        215420
#        230027
#        241559
#        254299
#
# Disc length: 3654 seconds
#
# Revision: 0
# Processed by: cddbd v1.5.2PL0 Copyright (c) Steve Scherf et al.
# Submitted via: ExactAudioCopy v0.95b3
#
DISCID=170e4414
DTITLE=Frank Sinatra  - Classic Sinatra  [FLAC]
DYEAR=1900
DGENRE=
TTITLE0=I've Got The World On A String
TTITLE1=I Get A Kick Out Of You
TTITLE2=They Can't Take That Away From Me
TTITLE3=My Funny Valentine
TTITLE4=Young At Heart
TTITLE5=Someone To Watch Over Me
TTITLE6=In The Wee Small Hours Of The Morning
TTITLE7=I've Got You Under My Skin
TTITLE8=You Make Me Feel So Young
TTITLE9=It Happened in Monterey
TTITLE10=Oh! Look At Me Now
TTITLE11=Night And Day
TTITLE12=Witchcraft
TTITLE13=The Lady Is A Tramp
TTITLE14=All The Way
TTITLE15=Come Fly With Me
TTITLE16=Put Your Dreams Away
TTITLE17=Come Dance With Me
TTITLE18=Nice 'N' Easy
TTITLE19=One For My Baby
EXTD=
EXTT0=
EXTT1=
EXTT2=
EXTT3=
EXTT4=
EXTT5=
EXTT6=
EXTT7=
EXTT8=
EXTT9=
EXTT10=
EXTT11=
EXTT12=
EXTT13=
EXTT14=
EXTT15=
EXTT16=
EXTT17=
EXTT18=
EXTT19=
PLAYORDER=
